<?xml version="1.0" encoding="utf-8"?>
<!-- Generator: Adobe Illustrator 25.2.0, SVG Export Plug-In . SVG Version: 6.00 Build 0)  -->
<svg version="1.1" id="Ebene_1" xmlns="http://www.w3.org/2000/svg" xmlns:xlink="http://www.w3.org/1999/xlink" x="0px" y="0px"
	 viewBox="0 0 1200 1200" style="enable-background:new 0 0 1200 1200;" xml:space="preserve">
<style type="text/css">
	.st0{fill:#FFFFFF;}
</style>
<path class="st0" d="M324.4,502.2c-0.3,0-6.7-0.2-16,0V483c0-2.8-2.4-5.1-5.3-4.8c-18.6,1.6-42.3,9.8-56.5,24.8
	c-14.1-15-37.8-23.2-56.5-24.8c-2.8-0.2-5.3,2-5.3,4.8v19.7c-5.3-0.2-10.3-0.3-15.7-0.5c-2.7-0.1-5,2.1-5,4.8v88.3
	c0,2.6,2,4.7,4.5,4.8c19.3,1.3,51.6,1.4,76,11.8c2.2,0.9,4.1-0.1,3.8,0c24.4-10.4,56.7-10.6,76-11.8c2.5-0.2,4.5-2.3,4.5-4.8V507
	C329.1,504.4,327,502.3,324.4,502.2L324.4,502.2z M298.7,488.4v83.1c-14,3.1-31.7,9.8-47.2,23.9c0-4.3,0-81,0-83.3
	C262.2,498.9,282.2,490.9,298.7,488.4L298.7,488.4z M194.7,488.4c16.5,2.5,36.6,10.5,47.2,23.7v83.3c-15.5-14.1-33.2-20.8-47.2-23.9
	V488.4z M174,590.7V512c3.5,0.1,7.2,0.2,11,0.4v63.1c0,2.3,1.7,4.3,4,4.8c11.1,2.1,25.5,6.6,38.9,16.3
	C208.7,592.2,188.7,591.5,174,590.7L174,590.7z M319.4,590.7c-14.6,0.8-34.7,1.5-53.8,5.8c13.4-9.7,27.8-14.2,38.9-16.3
	c2.3-0.4,4-2.4,4-4.8v-63.6c4.5-0.1,8.3-0.1,11-0.1L319.4,590.7L319.4,590.7z"/>
<g>
	<path class="st0" d="M368.3,587.5v-70.7h17.9c3.1,0,5.9,0.3,8.6,0.8c2.6,0.5,4.9,1.5,6.9,2.8c2,1.3,3.5,3.2,4.6,5.5
		c1.1,2.4,1.6,5.4,1.6,9.2c0,2.9-0.4,5.3-1.2,7.3c-0.8,2-2,3.6-3.5,4.8c-1.5,1.2-3.4,2-5.6,2.4c2.7,0.4,5,1.3,6.9,2.8
		c1.9,1.5,3.3,3.4,4.2,5.8c0.9,2.4,1.4,5.3,1.4,8.6c0,3.6-0.5,6.6-1.4,9.3c-0.9,2.6-2.2,4.8-4,6.5c-1.7,1.7-3.9,3-6.5,3.8
		c-2.6,0.8-5.5,1.3-8.9,1.3H368.3z M382.7,545.3h3.6c2.5,0,4.4-0.4,5.7-1.1c1.3-0.7,2.2-1.8,2.7-3.3c0.5-1.5,0.7-3.3,0.7-5.5
		c0-2.2-0.4-3.9-1.1-5.2c-0.7-1.3-1.8-2.3-3.3-2.8c-1.5-0.6-3.4-0.9-5.6-0.9h-2.6V545.3z M382.7,577.4h4c3.6,0,6.1-0.9,7.5-2.7
		c1.4-1.8,2.1-4.5,2.1-8.1c0-2.8-0.3-5-1-6.7c-0.6-1.7-1.7-2.9-3.1-3.7c-1.4-0.8-3.3-1.2-5.7-1.2h-3.8V577.4z"/>
	<path class="st0" d="M438.3,588.4c-5.4,0-9.5-0.9-12.5-2.8c-3-1.8-5.1-4.5-6.2-7.9c-1.2-3.5-1.8-7.7-1.8-12.6v-48.4H432v50.4
		c0,1.7,0.1,3.5,0.4,5.2c0.3,1.7,0.8,3.1,1.7,4.1c0.9,1,2.3,1.6,4.1,1.6c1.9,0,3.3-0.5,4.2-1.6c0.9-1,1.5-2.4,1.7-4.1
		c0.2-1.7,0.3-3.4,0.3-5.2v-50.4h14.2v48.4c0,4.9-0.6,9.2-1.8,12.6c-1.2,3.5-3.3,6.1-6.2,7.9C447.8,587.5,443.7,588.4,438.3,588.4z"
		/>
	<path class="st0" d="M488.8,588.4c-5.4,0-9.5-0.9-12.5-2.8c-3-1.8-5.1-4.5-6.2-7.9c-1.2-3.5-1.8-7.7-1.8-12.6v-48.4h14.2v50.4
		c0,1.7,0.1,3.5,0.4,5.2c0.3,1.7,0.8,3.1,1.7,4.1c0.9,1,2.3,1.6,4.1,1.6c1.9,0,3.3-0.5,4.2-1.6c0.9-1,1.5-2.4,1.7-4.1
		c0.2-1.7,0.3-3.4,0.3-5.2v-50.4h14.2v48.4c0,4.9-0.6,9.2-1.8,12.6c-1.2,3.5-3.3,6.1-6.2,7.9C498.3,587.5,494.2,588.4,488.8,588.4z"
		/>
	<path class="st0" d="M519.4,587.5v-70.7h14.4v29.9l12.7-29.9h14l-13.3,31.8l14.2,38.9h-14.5L536,555.8l-2.3,4v27.7H519.4z"/>
	<path class="st0" d="M568.4,587.5v-70.7h15.4c4.9,0,8.8,0.9,11.6,2.6c2.8,1.7,4.7,4.1,5.9,7.3c1.2,3.1,1.7,6.8,1.7,10.9v28.1
		c0,4.4-0.6,8.2-1.7,11.5c-1.2,3.3-3.1,5.8-5.8,7.6c-2.7,1.8-6.4,2.7-11.1,2.7H568.4z M575.1,582.5h8.9c3.7,0,6.5-0.8,8.2-2.3
		c1.7-1.5,2.9-3.7,3.3-6.4c0.5-2.7,0.7-5.8,0.7-9.2v-26.4c0-3.5-0.3-6.5-0.9-8.9c-0.6-2.4-1.8-4.2-3.6-5.5c-1.8-1.3-4.4-1.9-8-1.9
		h-8.6V582.5z"/>
	<path class="st0" d="M630.7,588.4c-4.7,0-8.4-0.9-11-2.8c-2.6-1.8-4.5-4.4-5.6-7.7c-1.1-3.3-1.6-7.1-1.6-11.3v-29.3
		c0-4.3,0.6-8,1.7-11.2c1.1-3.2,3-5.6,5.7-7.4c2.6-1.7,6.3-2.6,10.9-2.6c4.5,0,8.1,0.9,10.8,2.6c2.6,1.7,4.5,4.2,5.6,7.4
		c1.1,3.2,1.7,6.9,1.7,11.2v29.4c0,4.2-0.5,8-1.6,11.2c-1.1,3.2-2.9,5.8-5.5,7.6C639,587.4,635.3,588.4,630.7,588.4z M630.7,583
		c3.1,0,5.4-0.6,7.1-1.9c1.6-1.3,2.8-3,3.4-5.2c0.6-2.2,0.9-4.8,0.9-7.8v-32c0-3-0.3-5.6-0.9-7.8c-0.6-2.2-1.7-3.9-3.4-5.1
		c-1.6-1.2-4-1.8-7.1-1.8c-3.1,0-5.5,0.6-7.2,1.8c-1.7,1.2-2.8,2.9-3.4,5.1c-0.6,2.2-0.9,4.8-0.9,7.8v32c0,3,0.3,5.6,0.9,7.8
		c0.6,2.2,1.7,4,3.4,5.2C625.1,582.4,627.5,583,630.7,583z"/>
	<path class="st0" d="M659.8,587.5v-70.7h16c4.4,0,7.9,0.7,10.4,2.1c2.5,1.4,4.4,3.5,5.5,6.2c1.1,2.7,1.7,5.9,1.7,9.6
		c0,2.6-0.3,5.1-0.9,7.4c-0.6,2.3-1.6,4.3-3,5.9c-1.4,1.6-3.4,2.7-5.9,3.2l10.8,36.1h-6.5l-10.4-34.8h-11.1v34.8H659.8z
		 M666.4,547.8h9c3,0,5.3-0.5,6.9-1.5c1.6-1,2.8-2.4,3.5-4.4c0.7-1.9,1-4.3,1-7.2c0-4.4-0.8-7.6-2.3-9.8c-1.5-2.2-4.5-3.2-9-3.2
		h-9.2V547.8z"/>
	<path class="st0" d="M712.3,587.5v-65.6H699v-5.2h33v5.2h-13v65.6H712.3z"/>
	<path class="st0" d="M738.6,587.5l1.7-70.7h6.6l14,61.4l14.2-61.4h6.6l1.7,70.7h-5.5l-1.4-56.3l-13.5,56.3h-4.3l-13.4-56.2
		l-1.4,56.2H738.6z"/>
	<path class="st0" d="M812.6,588.4c-4.8,0-8.5-0.9-11.1-2.6c-2.7-1.7-4.5-4.1-5.5-7.2c-1-3.1-1.5-6.5-1.5-10.4v-51.4h6.5v51.6
		c0,2.7,0.3,5.2,0.9,7.5c0.6,2.2,1.8,4,3.4,5.3c1.7,1.3,4.1,1.9,7.2,1.9c3,0,5.4-0.7,7.1-2c1.7-1.3,2.9-3.1,3.5-5.3
		c0.7-2.2,1-4.7,1-7.4v-51.6h6.4v51.4c0,3.9-0.5,7.4-1.6,10.4c-1,3.1-2.9,5.4-5.5,7.2C820.9,587.5,817.3,588.4,812.6,588.4z"/>
	<path class="st0" d="M842.2,587.5v-70.7h4.8l22.5,54.9v-54.9h5.8v70.7h-4.7L848,531.9v55.5H842.2z"/>
	<path class="st0" d="M887.6,587.5v-70.7H903c4.9,0,8.8,0.9,11.6,2.6c2.8,1.7,4.7,4.1,5.9,7.3c1.2,3.1,1.7,6.8,1.7,10.9v28.1
		c0,4.4-0.6,8.2-1.7,11.5c-1.2,3.3-3.1,5.8-5.8,7.6c-2.7,1.8-6.4,2.7-11.1,2.7H887.6z M894.3,582.5h8.9c3.7,0,6.5-0.8,8.2-2.3
		c1.7-1.5,2.9-3.7,3.3-6.4c0.5-2.7,0.7-5.8,0.7-9.2v-26.4c0-3.5-0.3-6.5-0.9-8.9c-0.6-2.4-1.8-4.2-3.6-5.5c-1.8-1.3-4.4-1.9-8-1.9
		h-8.6V582.5z"/>
</g>
</svg>
